<svg id="svg3678" xmlns="http://www.w3.org/2000/svg" viewBox="0 0 396 396"><defs><style>.cls-1{fill:#fff;}</style></defs><title>QR_TEST_GIT</title><rect width="396" height="396"/><path class="cls-1" d="M198,50.6A151.09,151.09,0,0,0,46.93,201.67c0,66.73,43.27,123.2,103.4,143.36,7.7,1.47,10.27-3.3,10.27-7.33,0-3.67,0-15.4-.37-28.23-42.16,9.16-51-18-51-18-7-17.6-16.87-22-16.87-22-13.57-9.53,1.1-9.17,1.1-9.17,15,1.1,23.1,15.4,23.1,15.4,13.57,23.1,35.2,16.5,44,12.47,1.47-9.9,5.13-16.5,9.53-20.17-33.36-3.66-68.93-16.86-68.93-74.8a59.44,59.44,0,0,1,15.4-40.7c-1.47-3.66-6.6-19.06,1.47-40,0,0,12.83-4,41.43,15.4A141.3,141.3,0,0,1,235,128c29-19.44,41.44-15.4,41.44-15.4,8.43,20.9,2.93,36.3,1.46,40a59.39,59.39,0,0,1,15.4,40.7c0,57.94-35.2,70.77-68.93,74.44,5.5,4.76,10.27,13.93,10.27,27.86,0,20.17-.37,36.3-.37,41.44,0,4,2.57,8.8,10.27,7.33C304.7,324.13,348,267.67,348,200.93,349.07,118.43,281.23,50.6,198,50.6Z" transform="translate(0 0)"/></svg>