<?xml version="1.0" encoding="UTF-8"?>
<svg viewBox="0 0 395.97 395.94" xmlns="http://www.w3.org/2000/svg">
<defs>
<style>.cls-1{fill:#fff;}</style>
</defs>
<title>In_ICON</title>
<path transform="translate(-.01 -.06)" d="M396,198q0,84.06,0,168.13c0,7.42-2.05,14.06-7,19.69a28,28,0,0,1-21.71,10.08q-169.39.12-338.8,0A28.27,28.27,0,0,1,.33,370.87C.17,369.26,0,367.64,0,366Q0,197.79,0,29.56c0-14.13,8.21-25,21.56-28.47A30.31,30.31,0,0,1,29,.1Q197.94,0,366.86.06a28.66,28.66,0,0,1,28.47,22.69,34.1,34.1,0,0,1,.61,7.14Q396,114,396,198Zm-58.1,139.49V335c0-12.19,0-24.39,0-36.58-.1-26.65-.14-53.29-.47-79.93a131.64,131.64,0,0,0-1.94-18.65c-1.56-10-4.36-19.63-9.56-28.42a51.4,51.4,0,0,0-27.8-22.94c-10.78-3.84-21.9-5-33.28-4.71a69.33,69.33,0,0,0-17.72,2.72c-14.59,4.27-26.22,12.53-34.5,25.36-.5.77-.94,1.57-1.41,2.36l-.5-.15c0-.68-.09-1.36-.1-2V150.76c0-2.6,0-2.65-2.57-2.65H156.44c-2.44,0-2.52.08-2.52,2.53q0,92.22,0,184.46c0,2,.63,2.47,2.55,2.46,17.9-.07,35.8,0,53.7,0,2.79,0,2.79,0,2.8-2.85q.17-49.8.38-99.59a57.84,57.84,0,0,1,3.51-19.33c3.34-9.25,9.38-15.83,19-18.59a43.75,43.75,0,0,1,17-1.39c10,1.11,17.16,6,21.22,15.25a55.29,55.29,0,0,1,4.24,22.28c.17,33.86.1,67.72.12,101.57,0,2.64,0,2.64,2.66,2.64h56.74Zm-279.38,0h2.33c18.1,0,36.2,0,54.29.05,2.09,0,2.43-.73,2.43-2.57q-.06-92.05,0-184.09c0-2.79,0-2.8-2.84-2.8H61.36c-2.87,0-2.87,0-2.87,2.83V337.52ZM53.82,88.43A33.9,33.9,0,0,0,88,122.87c19.56-.11,34.33-15,34.43-34.32A34.29,34.29,0,0,0,88.05,54.2C69.35,54.08,53.53,69.83,53.82,88.43Z"/>
<path class="cls-1" transform="translate(-.01 -.06)" d="M337.87,337.52H281.13c-2.65,0-2.66,0-2.66-2.65,0-33.85,0-67.71-.12-101.57A55.29,55.29,0,0,0,274.11,211c-4.06-9.23-11.23-14.14-21.22-15.25a43.75,43.75,0,0,0-17,1.39c-9.65,2.76-15.69,9.34-19,18.59a57.84,57.84,0,0,0-3.51,19.33q-.27,49.8-.38,99.59c0,2.84,0,2.85-2.8,2.85-17.9,0-35.8,0-53.7,0-1.92,0-2.55-.43-2.55-2.46q.09-92.24,0-184.46c0-2.45.08-2.52,2.52-2.53H208c2.53,0,2.57,0,2.57,2.65V172c0,.68.07,1.36.1,2l.5.15c.47-.79.91-1.59,1.41-2.36,8.28-12.83,19.91-21.09,34.5-25.36a69.4,69.4,0,0,1,17.72-2.72c11.38-.3,22.5.87,33.28,4.71a51.4,51.4,0,0,1,27.8,22.94c5.2,8.79,8,18.43,9.56,28.42a131.64,131.64,0,0,1,1.94,18.65c.33,26.64.37,53.29.47,79.93.05,12.19,0,24.39,0,36.58Z"/>
<path class="cls-1" transform="translate(-.01 -.06)" d="M58.49,337.52V150.94c0-2.82,0-2.83,2.87-2.83h53.31c2.83,0,2.84,0,2.84,2.8q0,92,0,184.09c0,1.84-.34,2.58-2.43,2.57-18.09-.09-36.19-.05-54.29-.05Z"/>
<path class="cls-1" transform="translate(-.01 -.06)" d="M53.82,88.43c-.29-18.6,15.53-34.35,34.23-34.23a34.29,34.29,0,0,1,34.4,34.35c-.1,19.34-14.87,34.21-34.43,34.32A33.9,33.9,0,0,1,53.82,88.43Z"/>
</svg>
