<svg id="svg3678" xmlns="http://www.w3.org/2000/svg" viewBox="0 0 396 396"><defs><style>.cls-1{fill:#fff;}</style></defs><title>VIMEO_LOGO</title><rect width="396" height="396"/><g id="Layer_1"><path class="cls-1" d="M303.27,66l1.51,0h0q23.31.68,35.26,15.09Q351.79,95.31,352,122.42h0v1.85c0,.93,0,1.84-.05,2.73s-.06,1.94-.1,2.8h0q-1.08,22.78-16.74,53.58-15.47,30.42-45.37,69h0q-31,40.34-57.32,60.6-26.91,20.72-49.3,20.71-14.6,0-26.74-13.31-11.55-12.66-20.84-37.66l-.1-.28q-4-14.79-8.05-29.58c-5.22-19.15-10.43-38.3-16.29-60h0q-6.63-24-13.67-35.77-6.32-10.6-12.25-10.6c-.5,0-2.5,1-6,3.14q-5.83,3.51-15.77,10.49L60.88,162,59,159.49l-14.18-18.3-1.88-2.42,2.3-2c8.11-7.14,15.45-13.66,22.13-19.65s14-12.63,21.78-19.66l.07-.05q15.06-13.06,26.41-20,11.76-7.17,20-7.94h0q19.19-1.85,31.09,11.41,11.46,12.77,15.69,39.5h0q4.23,27.07,7.35,44.85,3,17.37,4.73,24.05l0,.09q5,22.69,10.39,33.87,4.68,9.68,8.73,9.67,3.31,0,9.42-6.43,6.84-7.22,16.17-21.9h0a208.29,208.29,0,0,0,14.28-25.86q4.83-10.83,5.45-18.11l0-.07q1.2-11.56-3-17-4.07-5.19-13.95-5.18a49.54,49.54,0,0,0-10.33,1.11,62.9,62.9,0,0,0-10.74,3.37l-6.39,2.62,2-6.6q11-35.94,31.94-54.2,21.14-18.43,52-18.68h2.84Z" transform="translate(0 0)"/></g></svg>